<?xml version="1.0" encoding="UTF-8"?>
<svg version="1.1" xmlns="http://www.w3.org/2000/svg" width="32" height="32">
<path d="M0 0 C1.20284401 2.07573081 2.38705701 4.15883095 3.5625 6.25 C3.90474609 6.83652344 4.24699219 7.42304688 4.59960938 8.02734375 C7.06382218 12.45794859 7.06382218 12.45794859 6.71484375 15.421875 C6.47894531 15.94265625 6.24304688 16.4634375 6 17 C5.34 17 4.68 17 4 17 C4 21.29 4 25.58 4 30 C-0.47920597 30.02682159 -4.95825351 30.04675177 -9.4375 30.0625 C-10.71689453 30.07087891 -11.99628906 30.07925781 -13.31445312 30.08789062 C-15.13686523 30.09272461 -15.13686523 30.09272461 -16.99609375 30.09765625 C-18.12200928 30.10289307 -19.2479248 30.10812988 -20.40795898 30.11352539 C-23 30 -23 30 -24 29 C-26.58192269 14.28941576 -26.58192269 14.28941576 -23.4453125 9.75 C-21.03829279 8.17387322 -18.65820625 7.09877559 -16 6 C-14.0776568 4.88472752 -12.16097491 3.75964135 -10.25 2.625 C-6.60044268 0.54411205 -4.21625244 -0.31849389 0 0 Z " fill="#67B9FB" transform="translate(25,1)"/>
<path d="M0 0 C1.20284401 2.07573081 2.38705701 4.15883095 3.5625 6.25 C3.90474609 6.83652344 4.24699219 7.42304688 4.59960938 8.02734375 C7.06382218 12.45794859 7.06382218 12.45794859 6.71484375 15.421875 C6.47894531 15.94265625 6.24304688 16.4634375 6 17 C5.34 17 4.68 17 4 17 C3.67 15.68 3.34 14.36 3 13 C-1.29 12.67 -5.58 12.34 -10 12 C-6 9 -6 9 -3.3125 7.5 C-0.7031028 6.14900878 -0.7031028 6.14900878 0 3 C-0.48879639 3.2673999 -0.97759277 3.5347998 -1.48120117 3.81030273 C-3.71297955 5.02621893 -5.95012502 6.23191528 -8.1875 7.4375 C-8.95642578 7.85837891 -9.72535156 8.27925781 -10.51757812 8.71289062 C-14.41332134 10.80288162 -17.64445009 12.15513815 -22 13 C-22.66 13.99 -23.32 14.98 -24 16 C-24.33 14.68 -24.66 13.36 -25 12 C-20.20573187 8.66176886 -15.32687989 5.51820157 -10.25 2.625 C-9.36828125 2.12226562 -8.4865625 1.61953125 -7.578125 1.1015625 C-4.8260895 -0.07430721 -2.95887028 -0.22351178 0 0 Z " fill="#F3CC75" transform="translate(25,1)"/>
<path d="M0 0 C-0.0625 1.75 -0.0625 1.75 -1 4 C-3.24164322 5.59501537 -5.53566643 6.74543018 -8 8 C-2.555 8.495 -2.555 8.495 3 9 C3 10.65 3 12.3 3 14 C2.67 13.34 2.34 12.68 2 12 C0.35 12 -1.3 12 -3 12 C-2.67 12.99 -2.34 13.98 -2 15 C-2.52207031 14.7834375 -3.04414063 14.566875 -3.58203125 14.34375 C-9.843157 11.97526811 -15.347837 11.66428336 -22 12 C-22 11.01 -22 10.02 -22 9 C-20.741875 8.62875 -19.48375 8.2575 -18.1875 7.875 C-13.19859965 6.23578988 -8.82034529 3.82863842 -4.28515625 1.20703125 C-2 0 -2 0 0 0 Z " fill="#5698F7" transform="translate(25,4)"/>
<path d="M0 0 C-0.763125 0.598125 -1.52625 1.19625 -2.3125 1.8125 C-4.87276895 3.78835605 -4.87276895 3.78835605 -6.375 5.5 C-10.49232052 9.30060356 -14.65154269 10.93030854 -20 12 C-20.66 12.99 -21.32 13.98 -22 15 C-22.33 13.68 -22.66 12.36 -23 11 C-4.8705036 -1.6235012 -4.8705036 -1.6235012 0 0 Z " fill="#FBBD27" transform="translate(23,2)"/>
<path d="M0 0 C2 2 2 2 2 7 C-6.91 7 -15.82 7 -25 7 C-25.33 6.34 -25.66 5.68 -26 5 C-25.16855469 4.95101563 -24.33710938 4.90203125 -23.48046875 4.8515625 C-22.39378906 4.77679687 -21.30710937 4.70203125 -20.1875 4.625 C-19.10855469 4.55539063 -18.02960937 4.48578125 -16.91796875 4.4140625 C-13.81373814 4.18804267 -13.81373814 4.18804267 -11 2 C-10.01 2.66 -9.02 3.32 -8 4 C-5.94290404 4.24055468 -5.94290404 4.24055468 -3.8125 4.125 C-2.554375 4.08375 -1.29625 4.0425 0 4 C0 2.68 0 1.36 0 0 Z " fill="#53A2FE" transform="translate(27,24)"/>
<path d="M0 0 C-0.35581088 2.68579825 -0.68447836 3.74270768 -2.8203125 5.484375 C-7.85252789 8.24782887 -11.24949523 9.61175583 -17 9 C-12.7976162 5.21785458 -5.90556785 0 0 0 Z " fill="#5C6571" transform="translate(25,4)"/>
<path d="M0 0 C2.52940738 3.13164723 4.44920018 6.27808042 6 10 C5.6875 12.375 5.6875 12.375 5 14 C4.34 14 3.68 14 3 14 C2.67 12.68 2.34 11.36 2 10 C-0.97 9.67 -3.94 9.34 -7 9 C-7 8.67 -7 8.34 -7 8 C-4.36 8 -1.72 8 1 8 C0.67 7.34 0.34 6.68 0 6 C-0.039992 4.00039988 -0.04346799 1.99952758 0 0 Z " fill="#FBCF69" transform="translate(26,4)"/>
<path d="M0 0 C0.33 0 0.66 0 1 0 C1 3.96 1 7.92 1 12 C-2.39417765 8.87378374 -4.6062718 6.43458973 -6 2 C-4.35 2 -2.7 2 -1 2 C-0.67 1.34 -0.34 0.68 0 0 Z " fill="#71A8F8" transform="translate(28,14)"/>
<path d="M0 0 C1.98 0 3.96 0 6 0 C6 1.32 6 2.64 6 4 C4.02 4 2.04 4 0 4 C0 2.68 0 1.36 0 0 Z " fill="#E7C971" transform="translate(4,16)"/>
<path d="M0 0 C0.33 2.31 0.66 4.62 1 7 C0.34 6.67 -0.32 6.34 -1 6 C-0.67 5.01 -0.34 4.02 0 3 C-0.94875 3.515625 -1.8975 4.03125 -2.875 4.5625 C-3.90625 5.036875 -4.9375 5.51125 -6 6 C-6.66 5.67 -7.32 5.34 -8 5 C-2.25 0 -2.25 0 0 0 Z " fill="#EDC76F" transform="translate(25,1)"/>
<path d="M0 0 C1.65 0 3.3 0 5 0 C5 0.99 5 1.98 5 3 C2.69 3.33 0.38 3.66 -2 4 C-1.34 2.68 -0.68 1.36 0 0 Z " fill="#93CDFD" transform="translate(22,25)"/>
<path d="M0 0 C2.475 0.99 2.475 0.99 5 2 C3.25 3.5625 3.25 3.5625 1 5 C-1.25 4.6875 -1.25 4.6875 -3 4 C-2.01 4 -1.02 4 0 4 C0 2.68 0 1.36 0 0 Z " fill="#F2BB37" transform="translate(7,8)"/>
</svg>
